<?xml version="1.0" standalone="no"?><!DOCTYPE svg PUBLIC "-//W3C//DTD SVG 1.1//EN" "http://www.w3.org/Graphics/SVG/1.1/DTD/svg11.dtd"><svg t="1668001060104" class="icon" viewBox="0 0 1024 1024" version="1.1" xmlns="http://www.w3.org/2000/svg" p-id="1946" xmlns:xlink="http://www.w3.org/1999/xlink" width="200" height="200"><path d="M146.346667 206.549333a250.922667 250.922667 0 0 1 365.354666 11.093334L512 217.344l0.298667 0.298667a250.922667 250.922667 0 1 1 354.218666 354.218666l0.341334 0.341334L512 927.061333 157.141333 572.16l0.341334-0.341333a250.922667 250.922667 0 0 1-11.093334-365.312z m36.266666 36.224a199.722667 199.722667 0 0 0 0 282.453334l4.352 4.266666 4.48 4.096 41.642667 36.906667-2.688 2.56 281.6 281.6 281.6-281.6-2.688-2.56 41.642667-36.906667a199.722667 199.722667 0 1 0-273.578667-290.816l-4.266667 4.394667-41.045333 46.08-1.706667-1.706667-1.621333 1.706667-36.949333-41.6a199.722667 199.722667 0 0 0-290.816-8.874667z" fill="#333333" p-id="1947"></path></svg>