<?xml version="1.0" standalone="no"?><!DOCTYPE svg PUBLIC "-//W3C//DTD SVG 1.1//EN" "http://www.w3.org/Graphics/SVG/1.1/DTD/svg11.dtd"><svg t="1668001041893" class="icon" viewBox="0 0 1024 1024" version="1.1" xmlns="http://www.w3.org/2000/svg" p-id="1801" xmlns:xlink="http://www.w3.org/1999/xlink" width="200" height="200"><path d="M387.2768 360.8576l-229.376 33.3824-3.8912 0.86016a24.576 24.576 0 0 0-9.74848 41.04192L310.272 598.016l-39.15776 228.5568-0.4096 3.72736a24.576 24.576 0 0 0 36.0448 22.20032l205.25056-107.88864 205.2096 107.88864 3.44064 1.51552a24.576 24.576 0 0 0 32.23552-27.4432l-39.19872-228.5568 166.05184-161.792 2.62144-2.99008a24.576 24.576 0 0 0-16.22016-38.912l-229.45792-33.42336-102.64576-207.91296a24.576 24.576 0 0 0-44.07296 0L387.2768 360.8576zM512 219.38176l86.30272 174.85824 2.048 3.44064a24.576 24.576 0 0 0 16.46592 9.99424l192.96256 28.01664-139.6736 136.15104-2.58048 3.03104a24.576 24.576 0 0 0-4.46464 18.71872l32.9728 192.18432-172.60544-90.7264-3.6864-1.55648a24.576 24.576 0 0 0-19.16928 1.55648l-172.6464 90.7264 33.01376-192.18432 0.32768-3.97312a24.576 24.576 0 0 0-7.3728-17.77664l-139.71456-136.15104 193.00352-28.01664a24.576 24.576 0 0 0 18.51392-13.43488L512 219.38176z" fill="#32353D" p-id="1802"></path></svg>