<?xml version="1.0" standalone="no"?><!DOCTYPE svg PUBLIC "-//W3C//DTD SVG 1.1//EN" "http://www.w3.org/Graphics/SVG/1.1/DTD/svg11.dtd"><svg t="1668001012893" class="icon" viewBox="0 0 1024 1024" version="1.1" xmlns="http://www.w3.org/2000/svg" p-id="1511" xmlns:xlink="http://www.w3.org/1999/xlink" width="200" height="200"><path d="M888.618667 850.005333l-130.56-139.648a353.194667 353.194667 0 0 0 82.005333-226.688C840.106667 287.573333 680.362667 128 484.010667 128 287.744 128 128 287.573333 128 483.669333c0 196.138667 159.744 355.712 356.053333 355.712a353.962667 353.962667 0 0 0 147.370667-31.872 27.306667 27.306667 0 1 0-22.656-49.792c-39.253333 17.834667-81.194667 26.88-124.757333 26.88-166.101333 0-301.226667-134.954667-301.226667-300.928 0-165.930667 135.125333-300.928 301.226667-300.928 166.144 0 301.269333 134.997333 301.269333 300.928 0 78.122667-29.824 152.149333-83.925333 208.426667a27.349333 27.349333 0 0 0 0.725333 38.698667c0.853333 0.768 1.92 1.066667 2.816 1.792 0.768 1.066667 1.152 2.346667 2.090667 3.328l141.653333 151.424a27.221333 27.221333 0 0 0 38.656 1.28 27.306667 27.306667 0 0 0 1.322667-38.613334z" fill="#333333" p-id="1512"></path></svg>